<svg xmlns="http://www.w3.org/2000/svg" width="3500" height="300" viewBox="0 0 3500 300">
    <defs>
        <style>
            .cls-1 { fill: #eddd3e; }

            .cls-2 {
                fill: none;
                stroke: #12353c;
                stroke-miterlimit: 10;
                stroke-width: 2px;
            }
        </style>
    </defs>
    <path class="cls-1" d="M0 0h3500v300H0z"/>
    <path class="cls-2" d="M3246.3 54.7h26.62v31h-26.6zm0 35.44h13.63m25.4-35.44H3312v31h-26.6zm-39.03 55.88h66.54v32.82h-66.53zm0 53.22h26.62m-26.6 6.2h26.6m-26.6 6.2h26.6m-26.6 6.22h26.6m-26.6 6.2h26.6m-26.6 6.22h26.6m12.42-31.04H3312v12.42h-26.6V163.8m0 18.63h26.6m-26.6 6.2h26.6m-26.6 6.22h26.6M3042.3 54.7h173.86"/>
    <circle class="cls-2" cx="3055.6" cy="46.71" r="3.55"/>
    <circle class="cls-2" cx="3068.91" cy="46.71" r="3.55"/>
    <circle class="cls-2" cx="3082.21" cy="46.71" r="3.55"/>
    <path class="cls-2" d="M3055.6 65.34a.9.9 0 0 1 .9-.9h8.86a.9.9 0 0 1 .9.9v5.32a.9.9 0 0 1-.9.9h-8.87a.9.9 0 0 1-.9-.9zm19.52 2.66h10.64m9.76 0h16.85m10.63 0h16.85m12.42 0h12.42m-109.1 61.2H3202m-127.77-21.3l14.2-16 14.18 16v21.3h-28.3v-21.3h28.4"/>
    <path class="cls-2" d="M3102.6 129.2v-10.64h17.75v10.64m20.25-10.64a7.4 7.4 0 0 0 14.4 1.65 4.28 4.28 0 1 0 2.4-7.8 4.3 4.3 0 0 0-7.83-2 4.3 4.3 0 0 0-6.34 4.3 4.28 4.28 0 0 0-2.64 3.95zm10.63 5.32v5.32m19.64-39.48a7.22 7.22 0 0 1 7-7.44h.1a7.25 7.25 0 0 1 6.86 7.28 7.57 7.57 0 0 1 .2 12.7 7 7 0 1 1-14 .13 7.57 7.57 0 0 1-.2-12.7s-1.98 1.3.04 0zm7.1 20.4v18.63"/>
    <path class="cls-2" d="M2863.12 255.16h179.18V42.26a4.44 4.44 0 0 1 4.44-4.43h165a4.44 4.44 0 0 1 4.44 4.44v212.9H3500"/>
    <path class="cls-2" d="M3055.6 143.4h39.92v45.24h-39.92zm0 53.22h21.3m31.92-53.22h39.92v45.24h-39.92zm0 53.22h21.3M3162 143.4h40v45.24h-40zm0 53.22h21.3m-127.7 13.3h93.14v45.24h-93.14zm106.4 0h40v45.24h-40z"/>
    <path class="cls-2" d="M2814.27 243.3l16.28-4.36a3.46 3.46 0 0 0 2.45-4.23l-18.63-69.4a3.46 3.46 0 0 0-4.23-2.44l-16.28 4.36a3.46 3.46 0 0 0-2.45 4.23l18.6 69.5a3.4 3.4 0 0 0 4.2 2.47z"/>
    <path class="cls-2" d="M2801.9 182.42a4.88 4.88 0 1 1 9.77 0 4.88 4.88 0 0 1-9.76 0m4.1 19l10.3-2.75m-7.9 11.33l10.3-2.76m-7.92 11.32l10.27-2.76m-218.7-118.53H2636v48.8h-33.7v-48.8m8 55h17.73m14.2-55H2676v48.8h-33.7v-48.8m8 55h17.7m14.2-55h33.7v48.8h-33.7v-48.8m8 55h17.73m14.2-55h33.7v48.8h-33.7v-48.8m8 55h17.73m14.2-55h33.7v48.8H2762v-48.8m8 55h17.74m14.2-55h33.7v48.8h-33.7v-48.8m8 55h17.73m14.2-55h9.75v48.8h-9.76v-48.8m-241.3-47a.44.44 0 0 0 .44-.45h9.76a.44.44 0 0 0 .44.44V56a.44.44 0 0 0-.44.44H2601a.44.44 0 0 0-.44-.44zm0 16H2613m8.87 0h17.74m8.9 0h19.5m8.9 0h16m8.9 0h28.4m-129.5 5.3h228m0 5.33h-14.2"/>
    <path class="cls-2" d="M2580.16 42.27a4.44 4.44 0 0 1 4.44-4.44h262.56a4.44 4.44 0 0 1 4.44 4.44v149a4.44 4.44 0 0 1-4.44 4.44h-24.4m-24.83 0H2584.6a4.44 4.44 0 0 1-4.45-4.4v-149m173.42 188.5a4.88 4.88 0 1 1 4.88 4.9 4.88 4.88 0 0 1-4.88-4.9m-80.27 0h24.83"/>
    <rect class="cls-2" x="2656.44" y="215.24" width="118.86" height="31.05" rx="4.44" ry="4.44"/>
    <path class="cls-2" d="M2240.43 255.16h425.77v-8.87m14.2 0v8.8h71v-8.9m14.18 0v8.86h269.62m-794.77.02H0"/>
</svg>
