<svg xmlns="http://www.w3.org/2000/svg" viewBox="0 0 154.67 153.96" width="40" height="40"><path fill="#12353C" d="M.89 21.54C-2.6 41.8 4.3 70.5 20.4 98.53c16.16 28 37.6 48.3 56.9 55.44V0C45.01 0 16.7 8.4.9 21.54z"/><path fill="#EDDD3E" d="M134.22 98.53c16.16-27.99 23.05-56.72 19.56-76.98l-.01.01.01-.01C137.99 8.4 109.7 0 77.3 0v153.96c19.32-7.16 40.8-27.46 56.9-55.43z"/><path fill="#FFF" d="M115.57 25.24c-4.52-1.29-9.33-2.33-14.33-3.13-.06 2.12-.17 4.37-.33 6.7-.34 5.02-.91 10.32-1.65 15.52 3.28 1 6.2 2.3 8.5 3.7.04 3.18-.44 6.84-1.42 10.78-1.54 6.15-4.27 12.72-7.9 19-3.63 6.29-7.96 11.94-12.51 16.35-2.92 2.82-5.85 5.07-8.62 6.62-2.78-1.56-5.71-3.8-8.62-6.62-4.55-4.41-8.88-10.06-12.51-16.35-3.63-6.29-6.36-12.86-7.9-19.01-.99-3.94-1.47-7.6-1.42-10.78 2.38-1.41 5.26-2.67 8.54-3.7-.73-5.2-1.31-10.5-1.65-15.52-.16-2.37-.27-4.62-.33-6.74-5 .8-9.81 1.84-14.33 3.13-7.31 2.09-13.69 4.74-18.82 7.8-.08 6 .8 12.8 2.7 20.19 2.88 11.5 8 23.8 14.8 35.6 6.8 11.8 14.9 22.4 23.4 30.6 5.46 5.3 10.9 9.5 16.1 12.41 5.2-2.92 10.68-7.12 16.15-12.41 8.53-8.25 16.63-18.84 23.43-30.62 6.8-11.78 11.92-24.09 14.8-35.6 1.85-7.38 2.74-14.23 2.67-20.19-5.06-2.97-11.42-5.67-18.72-7.73z"/><path fill="#EAEAEA" d="M77.33 100.83c-2.78-1.56-5.7-3.8-8.62-6.62-4.55-4.41-8.88-10.06-12.51-16.35-3.63-6.29-6.36-12.86-7.9-19.01-.99-3.94-1.47-7.6-1.42-10.78 2.38-1.41 5.26-2.67 8.54-3.7-.73-5.2-1.31-10.5-1.65-15.52-.16-2.37-.27-4.62-.33-6.74-5 .8-9.81 1.84-14.33 3.13-7.31 2.09-13.69 4.74-18.82 7.78-.08 6 .8 12.8 2.7 20.2 2.88 11.5 8 23.8 14.8 35.6 6.8 11.8 14.9 22.4 23.4 30.62 5.46 5.3 10.9 9.5 16.1 12.4v-31.01z"/></svg>
